<svg xmlns="http://www.w3.org/2000/svg" viewBox="0 0 1041.7 232.37"><defs><style>.cls-1{fill:#28282b;}.cls-2{fill:#524998;}</style></defs><g id="Capa_2" data-name="Capa 2"><g id="Capa_1-2" data-name="Capa 1"><path class="cls-1" d="M284.32,232.37c-17.45,0-32.68-1.79-45.28-5.31-12.28-3.44-22.45-8.25-30.22-14.29A55.29,55.29,0,0,1,192,191.85a64.33,64.33,0,0,1-5.5-26.53v-6.48a64.33,64.33,0,0,1,5.5-26.53,54.53,54.53,0,0,1,17-20.9c7.87-6.06,18.08-10.87,30.36-14.32,12.55-3.5,27.88-5.27,45.55-5.27,99.84,0,95.49,56.74,95.49,77.26H257.57v1l-.15,1v8.38a21.46,21.46,0,0,0,8.46,17.5,28.12,28.12,0,0,0,17,5.35c10.58,0,21.72-5.53,25-15.9h1v0H377.5a58.29,58.29,0,0,1-5.35,13.21c-3.47,6.21-8.83,11.78-15.92,16.55-7.35,5-16.94,8.93-28.5,11.79C315.94,230.88,301.33,232.37,284.32,232.37Zm-.53-116.07c-12.45,0-25.69,8.33-25.69,23.79v4.07h50.79v-4.07C308.89,124.47,296.26,116.3,283.79,116.3Z"/><rect class="cls-1" x="406.08" y="42.89" width="72.45" height="184.33"/><path class="cls-1" d="M759.9,227.22a11,11,0,0,1-2.34-2.81,27.85,27.85,0,0,1-3.82-9.37c-1.8-7.88-3-24.09-4.87-32a17.42,17.42,0,0,0-7.06-10.68c-3-2.09-7.27-3.06-13.44-3.06H717v57.88H644.57V42.89H717v79.4h11.34c5.54,0,9.49-.89,12.44-2.8s5.45-5.54,7.21-10.81c2.29-7.48,4.48-24.1,11.81-28h72.91c-5.75,8.3-8.72,26-16.22,40.62a27.3,27.3,0,0,1-7.3,8.69,33.11,33.11,0,0,1-9.37,5.31,73.57,73.57,0,0,1-13.15,3.33l-5.41.9V151l5.41.9A116.92,116.92,0,0,1,800.37,155a29.63,29.63,0,0,1,9.52,4.87c2.86,2.2,5.11,5.46,7.72,9,6,8.13,9.1,35.44,11.56,47.38a59.61,59.61,0,0,0,3.57,11Z"/><path class="cls-1" d="M946.84,232.37c-18.81,0-34.81-1.41-47.54-4.18-12.37-2.71-22.38-6.4-29.74-10.95-7-4.29-12.06-9.37-15.14-15.12a50.69,50.69,0,0,1-4.58-12.2H923c.5,11.33,9.88,15.83,21.34,15.83h3.54c13,0,20.39-3.87,22-12.24,1.52-8.16-2.25-15.73-9.17-18.41a47.16,47.16,0,0,0-9.57-2.13c-4-.58-9.06-1.05-15.22-1.41-18.32-.69-33.42-2.24-45-4.61-11.18-2.29-19.94-5.22-26-8.73-5.62-3.22-9.42-6.86-11.32-10.83a32.9,32.9,0,0,1-3.16-14.49,30.1,30.1,0,0,1,3.93-14.73c2.58-4.69,7.17-9,13.67-12.78,6.85-4,16.43-7.32,28.47-9.81s27.77-3.76,46.36-3.76c18.16,0,33.6,1.39,45.89,4.14,12,2.71,21.75,6.42,29,11,7,4.46,12.12,9.59,15.25,15.25a48,48,0,0,1,4.6,11.46H965.91C965,123,956,119.2,945,119.2h-2.58a22,22,0,0,0-16.37,7.37c-3.61,4.11-5.23,4.66-4.55,9.85.73,5.62,4.5,12.72,18.31,14.64,4.2.58,9.81.95,15.25,1.26,18.65.73,33.89,2.28,45.42,4.62,11.21,2.26,20.06,5.24,26.3,8.85,5.71,3.31,9.64,7,11.67,11A30.77,30.77,0,0,1,1041.7,191a29.21,29.21,0,0,1-4,14.39c-2.64,4.7-7.42,9-14.2,12.95-7.27,4.17-17.12,7.56-29.3,10.08C981.63,231,965.71,232.37,946.84,232.37Z"/><path class="cls-2" d="M550.63,34.08V2.64A21.48,21.48,0,0,0,564.2,7.47,21.55,21.55,0,0,0,580,.53L580.5,0l.49.53a21.55,21.55,0,0,0,15.82,6.94,21.44,21.44,0,0,0,13.57-4.84V34.08Z"/><path class="cls-1" d="M0,227.22V80.67H71.61c2.92,0,4.79,10.64,5.91,17,.62,3.49,1.26,7.11,2.1,10.51,1.25,5,3.85,9,7.33,11.3,3,1.86,6.79,2.76,11.87,2.82l.33.07,1.19-6.16a84.27,84.27,0,0,1,5.23-18.39,41.28,41.28,0,0,1,8.7-13.47A28.17,28.17,0,0,1,125,77.63c3.67-1.21,11.1-2.09,17.65-2.09H171v68.62h-60.6a50.28,50.28,0,0,0-11.63.91,22.24,22.24,0,0,0-11.09,6.15,23.87,23.87,0,0,0-5.84,11.07,61.93,61.93,0,0,0-1.37,14.35v50.58Z"/><path class="cls-1" d="M537.87,227.22V141.47H503.44V95.22l11-1.07a99.22,99.22,0,0,0,12.6-2,29.91,29.91,0,0,0,10.91-5,31.58,31.58,0,0,0,8.18-9.43,73.39,73.39,0,0,0,4.48-9.34h59.75V227.22Z"/></g></g></svg>